# xmcd
#
# Track frame offsets:
#	150
#	10127
#	34287
#	54057
#	70367
#	89132
#	99385
#	119787
#	124607
#	140860
#	153082
#	169480
#
# Disc length: 2451 seconds
#
# Revision: 0
# Processed by: cddbd v1.5.2PL0 Copyright (c) Steve Scherf et al.
# Submitted via: EasyCDDAExtractor 10.0.1.1
#
DISCID=aa09910c
DTITLE=John Lisi and Delta Funk - Dead Cat Bounce
DYEAR=2007
DGENRE=Blues
TTITLE0=Dead Cat Bounce
TTITLE1=Woke Up Missed (Sleep Away The Blues)
TTITLE2=Slow Down Sugar!
TTITLE3=Beer Soaked Couch Slug
TTITLE4=Cheap Motel
TTITLE5=Po' Jon
TTITLE6=Flip Flops
TTITLE7=Flip Flops - Slight Return
TTITLE8=C'mon Down
TTITLE9=Bad Luck Roy
TTITLE10=Git' Er' Gon'
TTITLE11=Blah Blah Blah
EXTD=
EXTT0=
EXTT1=
EXTT2=
EXTT3=
EXTT4=
EXTT5=
EXTT6=
EXTT7=
EXTT8=
EXTT9=
EXTT10=
EXTT11=
PLAYORDER=
